<?xml version="1.0" standalone="no"?>
<!DOCTYPE svg PUBLIC "-//W3C//DTD SVG 20010904//EN"
 "http://www.w3.org/TR/2001/REC-SVG-20010904/DTD/svg10.dtd">
<svg xmlns="http://www.w3.org/2000/svg"
     width="80.000000pt" height="80.000000pt" viewBox="0 0 256.000000 256.000000"
     preserveAspectRatio="xMidYMid meet">
<metadata>
Created by potrace 1.15, written by Peter Selinger 2001-2017
</metadata>
<g transform="translate(0.000000,256.000000) scale(0.100000,-0.100000)"
fill="#2D3F5F" stroke="none">
<path d="M174 2536 c-112 -52 -174 -151 -174 -276 0 -176 124 -300 300 -300
176 0 300 124 300 300 0 176 -124 300 -300 300 -58 0 -87 -6 -126 -24z"/>
<path d="M1154 2536 c-112 -52 -174 -151 -174 -276 0 -176 124 -300 300 -300
176 0 300 124 300 300 0 89 -27 156 -85 215 -59 58 -126 85 -215 85 -58 0 -87
-6 -126 -24z"/>
<path d="M2134 2536 c-112 -52 -174 -151 -174 -276 0 -176 124 -300 300 -300
125 0 224 62 276 174 33 72 33 180 0 252 -52 112 -151 174 -276 174 -58 0 -87
-6 -126 -24z"/>
<path d="M174 1556 c-112 -52 -174 -151 -174 -276 0 -176 124 -300 300 -300
176 0 300 124 300 300 0 176 -124 300 -300 300 -58 0 -87 -6 -126 -24z"/>
<path d="M1154 1556 c-112 -52 -174 -151 -174 -276 0 -176 124 -300 300 -300
125 0 224 62 276 174 33 72 33 180 0 252 -52 112 -151 174 -276 174 -58 0 -87
-6 -126 -24z"/>
<path d="M2134 1556 c-112 -52 -174 -151 -174 -276 0 -176 124 -300 300 -300
125 0 224 62 276 174 33 72 33 180 0 252 -52 112 -151 174 -276 174 -58 0 -87
-6 -126 -24z"/>
<path d="M174 576 c-112 -52 -174 -151 -174 -276 0 -176 124 -300 300 -300
176 0 300 124 300 300 0 176 -124 300 -300 300 -58 0 -87 -6 -126 -24z"/>
<path d="M1154 576 c-112 -52 -174 -151 -174 -276 0 -176 124 -300 300 -300
176 0 300 124 300 300 0 125 -62 224 -174 276 -72 33 -180 33 -252 0z"/>
<path d="M2134 576 c-112 -52 -174 -151 -174 -276 0 -176 124 -300 300 -300
176 0 300 124 300 300 0 125 -62 224 -174 276 -72 33 -180 33 -252 0z"/>
</g>
</svg>
