<?xml version="1.0" encoding="UTF-8"?>
<svg xmlns="http://www.w3.org/2000/svg" width="16pt" height="16pt" viewBox="0 0 16 16" version="1.1">
    <g id="surface1">
        <path style=" stroke:none;fill-rule:evenodd;fill:rgb(23.529412%,60.784314%,63.921569%);fill-opacity:1;" d="M 1.355469 0.0117188 C 1.324219 0.015625 1.300781 0.0234375 1.304688 0.03125 C 1.308594 0.0429688 1.289062 0.046875 1.257812 0.046875 C 1.226562 0.046875 1.199219 0.0546875 1.199219 0.0625 C 1.195312 0.0742188 1.175781 0.0820312 1.152344 0.0898438 C 1.128906 0.09375 1.109375 0.101562 1.105469 0.113281 C 1.105469 0.121094 1.089844 0.128906 1.070312 0.128906 C 1.054688 0.128906 1.039062 0.136719 1.03125 0.144531 C 1.027344 0.152344 1.007812 0.160156 0.992188 0.160156 C 0.972656 0.160156 0.960938 0.164062 0.960938 0.171875 C 0.960938 0.179688 0.9375 0.195312 0.90625 0.207031 C 0.878906 0.21875 0.847656 0.242188 0.835938 0.253906 C 0.824219 0.269531 0.816406 0.273438 0.816406 0.269531 C 0.816406 0.261719 0.792969 0.277344 0.765625 0.304688 C 0.738281 0.332031 0.710938 0.347656 0.699219 0.34375 C 0.691406 0.335938 0.6875 0.339844 0.695312 0.347656 C 0.703125 0.359375 0.695312 0.367188 0.679688 0.367188 C 0.667969 0.367188 0.65625 0.375 0.65625 0.382812 C 0.65625 0.394531 0.648438 0.398438 0.640625 0.398438 C 0.625 0.398438 0.542969 0.476562 0.542969 0.488281 C 0.542969 0.5 0.5 0.542969 0.488281 0.542969 C 0.472656 0.542969 0.441406 0.578125 0.417969 0.628906 C 0.40625 0.652344 0.386719 0.667969 0.378906 0.660156 C 0.371094 0.65625 0.367188 0.660156 0.375 0.667969 C 0.378906 0.675781 0.367188 0.703125 0.34375 0.730469 C 0.320312 0.753906 0.304688 0.78125 0.304688 0.785156 C 0.304688 0.792969 0.285156 0.816406 0.265625 0.84375 C 0.246094 0.867188 0.21875 0.914062 0.207031 0.949219 C 0.195312 0.980469 0.179688 1.007812 0.171875 1.007812 C 0.164062 1.007812 0.160156 1.027344 0.160156 1.050781 C 0.160156 1.070312 0.15625 1.085938 0.148438 1.082031 C 0.140625 1.078125 0.132812 1.09375 0.132812 1.117188 C 0.128906 1.140625 0.117188 1.175781 0.101562 1.195312 C 0.0898438 1.21875 0.0820312 1.25 0.0859375 1.265625 C 0.0898438 1.285156 0.0859375 1.300781 0.0742188 1.304688 C 0.0625 1.308594 0.0507812 1.34375 0.0507812 1.378906 C 0.046875 1.417969 0.0390625 1.449219 0.03125 1.453125 C 0.0117188 1.460938 0.0117188 14.21875 0.03125 14.230469 C 0.046875 14.242188 0.0898438 14.207031 0.566406 13.835938 C 0.734375 13.707031 0.90625 13.570312 0.945312 13.539062 C 1.019531 13.480469 1.058594 13.410156 1.191406 13.097656 C 1.203125 13.070312 1.226562 13.015625 1.246094 12.976562 C 1.261719 12.933594 1.328125 12.78125 1.390625 12.636719 L 1.503906 12.371094 L 1.417969 12.246094 C 1.21875 11.957031 1.011719 11.328125 1.09375 11.246094 C 1.105469 11.234375 1.136719 11.191406 1.164062 11.152344 C 1.191406 11.113281 1.226562 11.0625 1.242188 11.046875 C 1.257812 11.027344 1.296875 10.980469 1.328125 10.941406 C 1.515625 10.710938 1.828125 10.433594 2.078125 10.289062 C 2.210938 10.210938 2.199219 10.199219 2.414062 10.496094 C 2.476562 10.578125 2.535156 10.664062 2.546875 10.6875 C 2.59375 10.777344 2.628906 10.832031 2.632812 10.828125 C 2.671875 10.789062 2.246094 10.222656 2.183594 10.222656 C 2.019531 10.222656 1.441406 10.742188 1.148438 11.144531 C 1.121094 11.183594 1.09375 11.210938 1.085938 11.207031 C 1.050781 11.183594 1.0625 10.738281 1.105469 10.511719 C 1.335938 9.300781 2.136719 8.398438 3.296875 8.046875 C 3.695312 7.925781 4.113281 8.132812 4.210938 8.503906 C 4.257812 8.691406 4.273438 8.765625 4.296875 8.929688 C 4.308594 9.027344 4.324219 9.273438 4.332031 9.472656 C 4.339844 9.871094 4.339844 9.878906 4.199219 10.3125 C 4.167969 10.40625 4.148438 10.488281 4.152344 10.492188 C 4.15625 10.496094 4.265625 10.167969 4.304688 10.023438 C 4.359375 9.835938 4.339844 9.859375 4.679688 9.570312 C 4.785156 9.480469 4.890625 9.390625 4.910156 9.371094 C 4.933594 9.351562 5.132812 9.183594 5.351562 8.992188 C 5.570312 8.804688 5.773438 8.632812 5.800781 8.609375 C 5.828125 8.585938 5.945312 8.484375 6.0625 8.382812 C 6.183594 8.28125 6.296875 8.183594 6.320312 8.164062 C 6.429688 8.070312 6.652344 7.878906 6.695312 7.84375 C 6.722656 7.820312 6.839844 7.71875 6.960938 7.617188 C 7.078125 7.515625 7.195312 7.417969 7.214844 7.398438 C 7.410156 7.230469 8.054688 6.675781 8.25 6.511719 C 8.472656 6.324219 8.59375 6.203125 8.59375 6.171875 C 8.59375 6.167969 8.613281 6.125 8.640625 6.078125 C 8.667969 6.03125 8.714844 5.949219 8.746094 5.890625 L 8.800781 5.789062 L 8.738281 5.644531 C 8.652344 5.441406 8.605469 5.28125 8.582031 5.117188 C 8.574219 5.035156 8.589844 5.007812 8.8125 4.734375 C 9.035156 4.464844 9.429688 4.152344 9.503906 4.191406 C 9.566406 4.226562 9.753906 4.542969 9.808594 4.710938 C 9.820312 4.742188 9.832031 4.765625 9.835938 4.761719 C 9.875 4.722656 9.574219 4.191406 9.5 4.171875 C 9.46875 4.160156 9.300781 4.257812 9.171875 4.355469 C 9.023438 4.472656 8.839844 4.671875 8.636719 4.933594 C 8.566406 5.023438 8.558594 5.007812 8.558594 4.804688 C 8.558594 3.804688 9.226562 2.957031 10.28125 2.617188 C 10.527344 2.535156 10.570312 2.523438 10.65625 2.515625 C 11.140625 2.46875 11.300781 3.160156 11.078125 4.304688 C 10.972656 4.832031 10.195312 5.695312 9.691406 5.839844 C 9.636719 5.855469 9.636719 5.855469 9.710938 5.746094 C 9.78125 5.640625 9.84375 5.507812 9.835938 5.484375 C 9.832031 5.476562 9.8125 5.511719 9.792969 5.566406 C 9.769531 5.621094 9.71875 5.710938 9.675781 5.765625 C 9.574219 5.902344 9.601562 5.910156 9.828125 5.796875 C 9.925781 5.746094 10.011719 5.699219 10.011719 5.695312 C 10.015625 5.6875 10.027344 5.679688 10.039062 5.679688 C 10.09375 5.679688 10.503906 5.3125 10.621094 5.15625 C 10.644531 5.121094 10.667969 5.09375 10.671875 5.089844 C 10.683594 5.078125 10.851562 4.832031 10.875 4.792969 C 10.882812 4.773438 10.90625 4.730469 10.925781 4.695312 C 10.984375 4.597656 11.070312 4.421875 11.074219 4.40625 C 11.074219 4.398438 11.109375 4.367188 11.148438 4.335938 C 11.191406 4.300781 11.363281 4.164062 11.535156 4.027344 C 11.707031 3.886719 11.945312 3.699219 12.058594 3.605469 C 12.210938 3.484375 12.273438 3.425781 12.28125 3.394531 C 12.324219 3.199219 12.394531 2.984375 12.4375 2.898438 C 12.457031 2.863281 12.730469 2.722656 12.785156 2.71875 C 12.8125 2.71875 12.847656 2.6875 12.824219 2.6875 C 12.804688 2.6875 12.570312 2.789062 12.554688 2.800781 C 12.476562 2.871094 12.472656 2.8125 12.546875 2.675781 C 12.867188 2.097656 13.417969 1.800781 14.183594 1.800781 L 14.457031 1.800781 L 14.59375 1.867188 C 14.875 2.003906 14.882812 2.082031 14.683594 2.597656 C 14.484375 3.117188 14.132812 3.519531 13.71875 3.703125 C 13.519531 3.792969 13.207031 3.867188 13.074219 3.851562 L 13.015625 3.847656 L 13.09375 3.761719 C 13.277344 3.558594 13.359375 3.277344 13.359375 2.875 L 13.359375 2.640625 L 13.304688 2.632812 C 13.226562 2.617188 12.996094 2.636719 12.910156 2.664062 L 12.839844 2.6875 L 12.902344 2.679688 C 12.9375 2.671875 13.003906 2.664062 13.046875 2.65625 C 13.144531 2.640625 13.285156 2.636719 13.320312 2.648438 C 13.339844 2.65625 13.34375 2.695312 13.34375 2.878906 C 13.34375 3.234375 13.277344 3.488281 13.128906 3.691406 C 12.996094 3.875 12.929688 3.894531 12.621094 3.847656 C 12.585938 3.84375 12.445312 3.914062 12.414062 3.949219 C 12.410156 3.957031 12.371094 3.988281 12.328125 4.015625 C 12.066406 4.195312 11.445312 4.679688 11.027344 5.039062 C 10.867188 5.175781 9.988281 5.929688 9.785156 6.109375 C 9.757812 6.132812 9.691406 6.1875 9.640625 6.230469 C 9.585938 6.277344 9.539062 6.316406 9.535156 6.320312 C 9.53125 6.324219 9.449219 6.394531 9.351562 6.472656 C 9.203125 6.59375 9.09375 6.683594 8.753906 6.957031 C 8.417969 7.222656 7.824219 7.640625 7.710938 7.691406 C 7.691406 7.699219 7.640625 7.71875 7.601562 7.726562 C 7.492188 7.757812 7.492188 7.757812 7.527344 7.757812 C 7.546875 7.757812 7.652344 7.730469 7.761719 7.699219 C 8.492188 7.46875 8.984375 7.472656 9.5625 7.714844 C 10.316406 8.027344 10.496094 8.4375 10.109375 8.953125 C 10.0625 9.011719 10.007812 9.097656 9.984375 9.136719 C 9.738281 9.59375 9.261719 10.09375 8.808594 10.371094 C 8.433594 10.601562 8.121094 10.714844 7.640625 10.800781 C 7.519531 10.820312 6.992188 10.820312 6.871094 10.800781 C 6.726562 10.773438 6.601562 10.75 6.574219 10.742188 C 6.542969 10.730469 6.601562 10.6875 6.648438 10.6875 C 6.664062 10.6875 6.703125 10.675781 6.726562 10.664062 C 6.769531 10.644531 6.769531 10.640625 6.734375 10.648438 C 6.714844 10.652344 6.671875 10.664062 6.640625 10.671875 C 6.609375 10.679688 6.566406 10.691406 6.539062 10.703125 C 6.460938 10.742188 6.03125 10.566406 5.726562 10.371094 L 5.59375 10.28125 L 5.421875 10.273438 C 5.257812 10.269531 5.097656 10.285156 4.96875 10.324219 C 4.90625 10.34375 4.847656 10.402344 4.578125 10.710938 C 4.496094 10.804688 4.417969 10.890625 4.410156 10.902344 C 4.398438 10.910156 4.292969 11.027344 4.175781 11.160156 C 4.058594 11.292969 3.957031 11.402344 3.953125 11.40625 C 3.949219 11.414062 3.875 11.492188 3.792969 11.585938 C 3.707031 11.675781 3.628906 11.761719 3.617188 11.777344 C 3.601562 11.789062 3.554688 11.839844 3.511719 11.886719 C 3.347656 12.070312 2.824219 12.628906 2.566406 12.894531 C 2.46875 12.996094 2.308594 13.167969 2.207031 13.273438 C 1.976562 13.511719 1.515625 13.980469 0.851562 14.652344 C 0.566406 14.9375 0.335938 15.179688 0.335938 15.1875 C 0.335938 15.207031 0.375 15.269531 0.402344 15.296875 C 0.417969 15.3125 0.433594 15.328125 0.433594 15.335938 C 0.433594 15.339844 0.441406 15.355469 0.453125 15.367188 C 0.464844 15.378906 0.480469 15.398438 0.488281 15.410156 C 0.5 15.421875 0.523438 15.441406 0.542969 15.457031 C 0.5625 15.46875 0.574219 15.488281 0.574219 15.5 C 0.574219 15.507812 0.589844 15.523438 0.609375 15.527344 C 0.625 15.535156 0.640625 15.542969 0.640625 15.554688 C 0.640625 15.5625 0.648438 15.566406 0.660156 15.566406 C 0.671875 15.566406 0.691406 15.582031 0.703125 15.601562 C 0.714844 15.617188 0.734375 15.632812 0.746094 15.632812 C 0.757812 15.632812 0.769531 15.640625 0.769531 15.648438 C 0.769531 15.65625 0.777344 15.664062 0.789062 15.664062 C 0.800781 15.664062 0.816406 15.675781 0.824219 15.691406 C 0.828125 15.703125 0.835938 15.710938 0.84375 15.707031 C 0.847656 15.699219 0.863281 15.707031 0.878906 15.71875 C 0.917969 15.753906 1.023438 15.808594 1.050781 15.808594 C 1.0625 15.808594 1.070312 15.816406 1.0625 15.824219 C 1.058594 15.832031 1.070312 15.839844 1.09375 15.839844 C 1.117188 15.839844 1.136719 15.847656 1.144531 15.855469 C 1.148438 15.863281 1.171875 15.871094 1.191406 15.871094 C 1.210938 15.871094 1.230469 15.878906 1.234375 15.882812 C 1.242188 15.902344 1.398438 15.953125 1.445312 15.953125 C 1.46875 15.953125 1.492188 15.960938 1.496094 15.96875 C 1.507812 15.988281 14.507812 15.988281 14.519531 15.96875 C 14.527344 15.960938 14.554688 15.953125 14.585938 15.953125 C 14.617188 15.953125 14.65625 15.945312 14.671875 15.9375 C 14.6875 15.925781 14.722656 15.917969 14.746094 15.917969 C 14.769531 15.914062 14.792969 15.902344 14.796875 15.890625 C 14.800781 15.882812 14.824219 15.871094 14.851562 15.871094 C 14.875 15.871094 14.894531 15.863281 14.894531 15.855469 C 14.894531 15.847656 14.917969 15.839844 14.945312 15.839844 C 14.96875 15.839844 14.992188 15.832031 14.992188 15.824219 C 14.992188 15.816406 15.007812 15.808594 15.023438 15.808594 C 15.042969 15.808594 15.054688 15.800781 15.054688 15.796875 C 15.054688 15.789062 15.082031 15.773438 15.113281 15.761719 C 15.144531 15.746094 15.167969 15.730469 15.167969 15.726562 C 15.167969 15.71875 15.175781 15.710938 15.1875 15.710938 C 15.199219 15.710938 15.226562 15.695312 15.25 15.675781 C 15.269531 15.65625 15.316406 15.617188 15.351562 15.59375 C 15.386719 15.566406 15.433594 15.523438 15.457031 15.5 C 15.480469 15.476562 15.503906 15.457031 15.511719 15.457031 C 15.527344 15.457031 15.574219 15.40625 15.558594 15.40625 C 15.550781 15.40625 15.554688 15.398438 15.570312 15.390625 C 15.585938 15.382812 15.601562 15.367188 15.601562 15.359375 C 15.601562 15.332031 15.640625 15.296875 15.65625 15.308594 C 15.664062 15.316406 15.664062 15.3125 15.65625 15.300781 C 15.652344 15.289062 15.664062 15.265625 15.6875 15.246094 C 15.707031 15.226562 15.722656 15.207031 15.71875 15.199219 C 15.714844 15.191406 15.714844 15.183594 15.722656 15.183594 C 15.730469 15.183594 15.753906 15.15625 15.769531 15.125 C 15.789062 15.089844 15.808594 15.050781 15.820312 15.03125 C 15.828125 15.015625 15.847656 14.976562 15.859375 14.949219 C 15.871094 14.917969 15.882812 14.894531 15.890625 14.894531 C 15.894531 14.894531 15.914062 14.855469 15.929688 14.804688 C 15.941406 14.753906 15.964844 14.695312 15.972656 14.671875 C 16 14.617188 16 1.335938 15.972656 1.277344 C 15.964844 1.257812 15.945312 1.207031 15.933594 1.167969 C 15.921875 1.132812 15.902344 1.089844 15.894531 1.078125 C 15.882812 1.066406 15.871094 1.042969 15.871094 1.023438 C 15.871094 1.007812 15.863281 0.992188 15.855469 0.992188 C 15.847656 0.992188 15.839844 0.976562 15.839844 0.960938 C 15.839844 0.941406 15.832031 0.929688 15.824219 0.929688 C 15.816406 0.929688 15.808594 0.910156 15.808594 0.886719 C 15.808594 0.863281 15.800781 0.847656 15.796875 0.855469 C 15.789062 0.859375 15.773438 0.839844 15.761719 0.8125 C 15.742188 0.765625 15.707031 0.71875 15.652344 0.664062 C 15.640625 0.652344 15.632812 0.636719 15.632812 0.632812 C 15.632812 0.617188 15.523438 0.511719 15.503906 0.511719 C 15.496094 0.511719 15.488281 0.503906 15.488281 0.496094 C 15.488281 0.476562 15.347656 0.335938 15.328125 0.335938 C 15.320312 0.335938 15.3125 0.328125 15.308594 0.320312 C 15.304688 0.3125 15.292969 0.304688 15.28125 0.300781 C 15.269531 0.296875 15.242188 0.28125 15.226562 0.265625 C 15.183594 0.222656 15.128906 0.191406 15.097656 0.191406 C 15.082031 0.191406 15.070312 0.183594 15.070312 0.175781 C 15.070312 0.167969 15.058594 0.160156 15.039062 0.160156 C 15.023438 0.160156 15.007812 0.152344 15.007812 0.144531 C 15.007812 0.136719 14.992188 0.128906 14.96875 0.128906 C 14.949219 0.128906 14.925781 0.117188 14.921875 0.105469 C 14.917969 0.0898438 14.898438 0.078125 14.882812 0.078125 C 14.867188 0.078125 14.847656 0.0742188 14.84375 0.0703125 C 14.835938 0.0625 14.816406 0.0546875 14.796875 0.0507812 C 14.777344 0.0507812 14.75 0.0390625 14.738281 0.0273438 C 14.714844 0.0078125 1.53125 -0.0078125 1.355469 0.0117188 M 9.851562 4.839844 C 9.867188 4.925781 9.867188 5.335938 9.851562 5.40625 C 9.84375 5.449219 9.847656 5.449219 9.863281 5.390625 C 9.898438 5.292969 9.898438 4.964844 9.863281 4.855469 C 9.84375 4.785156 9.839844 4.785156 9.851562 4.839844 M 7.414062 7.777344 L 7.382812 7.789062 L 7.414062 7.789062 C 7.433594 7.792969 7.457031 7.785156 7.472656 7.777344 C 7.503906 7.753906 7.464844 7.753906 7.414062 7.777344 M 7.3125 7.808594 C 7.289062 7.820312 7.289062 7.824219 7.3125 7.824219 C 7.324219 7.824219 7.347656 7.816406 7.359375 7.808594 C 7.382812 7.792969 7.382812 7.792969 7.359375 7.792969 C 7.347656 7.792969 7.324219 7.800781 7.3125 7.808594 M 7.1875 7.847656 C 7.160156 7.855469 7.132812 7.871094 7.125 7.878906 C 7.109375 7.894531 7.167969 7.878906 7.238281 7.847656 C 7.300781 7.820312 7.257812 7.820312 7.1875 7.847656 M 7.039062 7.90625 C 7.027344 7.914062 6.960938 7.945312 6.894531 7.976562 C 6.832031 8.007812 6.769531 8.039062 6.761719 8.050781 C 6.746094 8.0625 7.082031 7.910156 7.101562 7.894531 C 7.117188 7.882812 7.0625 7.890625 7.039062 7.90625 M 6.558594 8.171875 C 6.328125 8.332031 6.144531 8.5 5.921875 8.746094 C 5.773438 8.910156 5.777344 8.917969 5.945312 8.851562 C 6.046875 8.8125 6.074219 8.808594 6.273438 8.808594 C 6.488281 8.808594 6.546875 8.816406 6.742188 8.882812 C 6.792969 8.902344 6.835938 8.910156 6.839844 8.90625 C 6.855469 8.894531 6.527344 8.800781 6.402344 8.785156 C 6.226562 8.761719 6.042969 8.789062 5.90625 8.851562 C 5.683594 8.957031 6.328125 8.328125 6.640625 8.136719 C 6.691406 8.101562 6.734375 8.074219 6.734375 8.070312 C 6.734375 8.054688 6.699219 8.074219 6.558594 8.171875 M 6.867188 8.917969 C 6.867188 8.921875 6.96875 8.972656 7.089844 9.035156 C 7.207031 9.097656 7.378906 9.195312 7.472656 9.253906 C 7.5625 9.3125 7.621094 9.34375 7.597656 9.324219 C 7.519531 9.257812 7.226562 9.082031 7.054688 8.996094 C 6.902344 8.921875 6.84375 8.898438 6.867188 8.917969 M 7.679688 9.390625 C 7.742188 9.445312 7.761719 9.460938 7.824219 9.503906 C 7.855469 9.527344 7.890625 9.550781 7.902344 9.5625 C 7.917969 9.574219 7.941406 9.59375 7.960938 9.605469 C 7.992188 9.628906 7.9375 9.78125 7.871094 9.839844 C 7.867188 9.84375 7.84375 9.875 7.824219 9.902344 C 7.75 10.011719 7.527344 10.226562 7.375 10.332031 C 7.203125 10.453125 7.164062 10.484375 7.257812 10.433594 C 7.488281 10.300781 7.746094 10.058594 7.902344 9.824219 C 8.027344 9.636719 8.027344 9.636719 7.875 9.523438 C 7.726562 9.414062 7.617188 9.335938 7.679688 9.390625 M 7.089844 10.503906 C 7.046875 10.523438 6.964844 10.5625 6.898438 10.585938 C 6.835938 10.609375 6.785156 10.632812 6.792969 10.636719 C 6.804688 10.648438 7.183594 10.488281 7.183594 10.46875 C 7.183594 10.457031 7.160156 10.46875 7.089844 10.503906 M 4.050781 10.722656 C 4.023438 10.796875 4.003906 10.855469 4.007812 10.859375 C 4.007812 10.863281 4.035156 10.808594 4.0625 10.734375 C 4.09375 10.664062 4.113281 10.605469 4.109375 10.601562 C 4.105469 10.597656 4.082031 10.652344 4.050781 10.722656 M 2.640625 10.855469 C 2.640625 10.859375 2.65625 10.890625 2.675781 10.929688 C 2.726562 11.039062 2.726562 11.042969 2.765625 11.164062 C 2.789062 11.230469 2.808594 11.277344 2.8125 11.273438 C 2.828125 11.257812 2.671875 10.847656 2.648438 10.847656 C 2.644531 10.847656 2.640625 10.851562 2.640625 10.855469 M 3.894531 11.066406 C 3.84375 11.171875 3.796875 11.261719 3.792969 11.269531 C 3.789062 11.277344 3.792969 11.28125 3.804688 11.273438 C 3.824219 11.261719 4.003906 10.894531 3.996094 10.886719 C 3.992188 10.882812 3.945312 10.964844 3.894531 11.066406 M 3.6875 11.441406 C 3.457031 11.808594 3.1875 12.074219 2.871094 12.253906 C 2.792969 12.300781 2.722656 12.335938 2.714844 12.335938 C 2.707031 12.335938 2.703125 12.339844 2.707031 12.34375 C 2.730469 12.367188 3 12.207031 3.152344 12.085938 C 3.203125 12.042969 3.421875 11.828125 3.472656 11.769531 C 3.566406 11.65625 3.664062 11.519531 3.664062 11.503906 C 3.664062 11.496094 3.667969 11.488281 3.675781 11.488281 C 3.683594 11.488281 3.695312 11.472656 3.707031 11.453125 C 3.714844 11.433594 3.738281 11.390625 3.757812 11.355469 C 3.832031 11.234375 3.777344 11.300781 3.6875 11.441406 M 2.820312 11.351562 C 2.820312 11.378906 2.824219 11.417969 2.832031 11.441406 C 2.84375 11.480469 2.84375 11.480469 2.84375 11.433594 C 2.84375 11.40625 2.839844 11.367188 2.832031 11.34375 C 2.820312 11.304688 2.820312 11.304688 2.820312 11.351562 M 2.851562 11.585938 C 2.851562 11.625 2.855469 11.640625 2.859375 11.621094 C 2.863281 11.601562 2.863281 11.566406 2.859375 11.546875 C 2.855469 11.527344 2.851562 11.542969 2.851562 11.585938 M 2.824219 11.765625 C 2.816406 11.800781 2.816406 11.828125 2.820312 11.835938 C 2.824219 11.839844 2.835938 11.816406 2.839844 11.785156 C 2.847656 11.753906 2.847656 11.722656 2.84375 11.71875 C 2.839844 11.710938 2.828125 11.734375 2.824219 11.765625 M 2.792969 11.902344 C 2.746094 12.054688 2.667969 12.183594 2.542969 12.3125 C 2.441406 12.421875 2.449219 12.449219 2.578125 12.40625 C 2.625 12.390625 2.671875 12.375 2.679688 12.367188 C 2.699219 12.347656 2.691406 12.347656 2.59375 12.382812 C 2.46875 12.429688 2.464844 12.425781 2.546875 12.339844 C 2.671875 12.203125 2.828125 11.933594 2.8125 11.882812 C 2.808594 11.871094 2.800781 11.882812 2.792969 11.902344 "/>
        <path style=" stroke:none;fill-rule:evenodd;fill:rgb(97.647059%,98.039216%,98.039216%);fill-opacity:1;" d="M 13.960938 1.800781 C 13.328125 1.859375 12.828125 2.167969 12.546875 2.675781 C 12.457031 2.839844 12.460938 2.847656 12.609375 2.773438 C 12.828125 2.667969 13.148438 2.601562 13.304688 2.632812 L 13.359375 2.640625 L 13.359375 2.875 C 13.359375 3.277344 13.277344 3.558594 13.09375 3.761719 L 13.015625 3.847656 L 13.074219 3.851562 C 13.207031 3.867188 13.519531 3.792969 13.71875 3.703125 C 14.132812 3.519531 14.484375 3.117188 14.683594 2.597656 C 14.882812 2.082031 14.875 2.003906 14.59375 1.867188 L 14.457031 1.800781 L 14.238281 1.796875 C 14.121094 1.796875 13.996094 1.796875 13.960938 1.800781 M 10.601562 2.519531 C 10.589844 2.523438 10.539062 2.539062 10.488281 2.554688 C 9.269531 2.902344 8.558594 3.730469 8.558594 4.804688 C 8.558594 5.007812 8.566406 5.023438 8.636719 4.933594 C 8.921875 4.566406 9.125 4.367188 9.371094 4.222656 C 9.496094 4.152344 9.511719 4.152344 9.59375 4.269531 C 9.949219 4.769531 9.992188 5.320312 9.710938 5.746094 C 9.636719 5.855469 9.636719 5.855469 9.691406 5.839844 C 10.195312 5.695312 10.972656 4.832031 11.078125 4.304688 C 11.207031 3.652344 11.195312 2.945312 11.058594 2.722656 C 10.964844 2.570312 10.746094 2.472656 10.601562 2.519531 M 8.511719 7.535156 C 8.265625 7.558594 8.097656 7.59375 7.703125 7.710938 C 7.605469 7.738281 7.5 7.769531 7.464844 7.78125 C 7.199219 7.847656 6.839844 8.003906 6.621094 8.148438 C 6.289062 8.363281 5.691406 8.953125 5.90625 8.851562 C 6.351562 8.644531 7.007812 8.867188 7.875 9.523438 C 8.027344 9.636719 8.027344 9.636719 7.902344 9.824219 C 7.640625 10.21875 7.234375 10.507812 6.71875 10.664062 C 6.535156 10.722656 6.523438 10.738281 6.644531 10.757812 C 6.679688 10.765625 6.746094 10.777344 6.792969 10.785156 C 7.019531 10.832031 7.574219 10.820312 7.832031 10.765625 C 8.71875 10.574219 9.550781 9.941406 9.984375 9.136719 C 10.007812 9.097656 10.0625 9.011719 10.109375 8.953125 C 10.496094 8.4375 10.316406 8.027344 9.5625 7.714844 C 9.289062 7.601562 8.769531 7.492188 8.65625 7.523438 C 8.652344 7.523438 8.585938 7.53125 8.511719 7.535156 M 3.375 8.03125 C 2.726562 8.152344 1.976562 8.691406 1.5625 9.335938 C 1.230469 9.859375 1.011719 10.628906 1.066406 11.109375 C 1.078125 11.226562 1.089844 11.230469 1.148438 11.144531 C 1.441406 10.742188 2.019531 10.222656 2.183594 10.222656 C 2.230469 10.222656 2.316406 10.324219 2.46875 10.542969 C 2.957031 11.257812 2.984375 11.871094 2.546875 12.339844 C 2.464844 12.425781 2.46875 12.429688 2.609375 12.378906 C 3.363281 12.105469 3.941406 11.285156 4.296875 9.984375 C 4.363281 9.742188 4.335938 9.011719 4.246094 8.648438 C 4.234375 8.59375 4.214844 8.53125 4.210938 8.503906 C 4.121094 8.152344 3.773438 7.957031 3.375 8.03125 "/>
        <path style=" stroke:none;fill-rule:evenodd;fill:rgb(38.823529%,39.215686%,39.215686%);fill-opacity:1;" d="M 13.070312 2.648438 C 12.992188 2.660156 12.855469 2.691406 12.824219 2.703125 C 12.804688 2.710938 12.761719 2.726562 12.726562 2.742188 C 12.582031 2.796875 12.453125 2.867188 12.4375 2.898438 C 12.386719 3.003906 12.320312 3.210938 12.28125 3.394531 C 12.273438 3.425781 12.210938 3.484375 12.058594 3.605469 C 11.945312 3.699219 11.707031 3.886719 11.535156 4.027344 C 11.363281 4.164062 11.191406 4.300781 11.148438 4.335938 C 11.109375 4.367188 11.074219 4.398438 11.074219 4.40625 C 11.070312 4.421875 10.984375 4.597656 10.925781 4.695312 C 10.90625 4.730469 10.882812 4.773438 10.875 4.792969 C 10.851562 4.832031 10.683594 5.078125 10.671875 5.089844 C 10.667969 5.09375 10.644531 5.121094 10.621094 5.15625 C 10.503906 5.3125 10.09375 5.679688 10.039062 5.679688 C 10.027344 5.679688 10.015625 5.6875 10.011719 5.695312 C 10.011719 5.699219 9.925781 5.746094 9.828125 5.796875 C 9.601562 5.910156 9.574219 5.902344 9.675781 5.765625 C 9.84375 5.542969 9.925781 5.140625 9.855469 4.875 C 9.785156 4.601562 9.597656 4.242188 9.503906 4.191406 C 9.363281 4.117188 8.558594 4.925781 8.582031 5.117188 C 8.605469 5.28125 8.652344 5.441406 8.738281 5.644531 L 8.800781 5.789062 L 8.746094 5.890625 C 8.714844 5.949219 8.667969 6.03125 8.640625 6.078125 C 8.613281 6.125 8.59375 6.167969 8.59375 6.171875 C 8.59375 6.203125 8.472656 6.324219 8.25 6.511719 C 8.054688 6.675781 7.410156 7.230469 7.214844 7.398438 C 7.195312 7.417969 7.078125 7.515625 6.960938 7.617188 C 6.839844 7.71875 6.722656 7.820312 6.695312 7.84375 C 6.652344 7.878906 6.429688 8.070312 6.320312 8.164062 C 6.296875 8.183594 6.183594 8.28125 6.0625 8.382812 C 5.945312 8.484375 5.828125 8.585938 5.800781 8.609375 C 5.773438 8.632812 5.570312 8.804688 5.351562 8.992188 C 5.132812 9.183594 4.933594 9.351562 4.910156 9.371094 C 4.890625 9.390625 4.785156 9.480469 4.679688 9.570312 C 4.339844 9.859375 4.355469 9.835938 4.300781 10.039062 C 4.277344 10.125 4.148438 10.527344 4.128906 10.566406 C 4.121094 10.585938 4.089844 10.667969 4.054688 10.753906 C 3.972656 10.957031 3.882812 11.148438 3.78125 11.316406 C 3.734375 11.394531 3.695312 11.464844 3.695312 11.472656 C 3.695312 11.480469 3.6875 11.488281 3.679688 11.488281 C 3.671875 11.488281 3.664062 11.496094 3.664062 11.503906 C 3.664062 11.515625 3.628906 11.566406 3.589844 11.621094 C 3.300781 11.996094 3.039062 12.210938 2.6875 12.363281 C 2.464844 12.460938 2.417969 12.445312 2.542969 12.3125 C 2.785156 12.0625 2.886719 11.738281 2.832031 11.417969 C 2.816406 11.328125 2.742188 11.078125 2.71875 11.023438 C 2.613281 10.792969 2.535156 10.660156 2.414062 10.492188 C 2.199219 10.199219 2.210938 10.210938 2.078125 10.289062 C 1.828125 10.433594 1.515625 10.710938 1.328125 10.941406 C 1.296875 10.980469 1.257812 11.027344 1.242188 11.046875 C 1.226562 11.0625 1.191406 11.113281 1.164062 11.152344 C 1.136719 11.191406 1.105469 11.234375 1.09375 11.246094 C 1.011719 11.328125 1.21875 11.957031 1.417969 12.246094 L 1.503906 12.371094 L 1.390625 12.636719 C 1.328125 12.78125 1.261719 12.933594 1.246094 12.976562 C 1.226562 13.015625 1.203125 13.070312 1.191406 13.097656 C 1.058594 13.410156 1.019531 13.480469 0.945312 13.539062 C 0.90625 13.570312 0.734375 13.707031 0.566406 13.835938 C 0.0898438 14.207031 0.046875 14.242188 0.03125 14.230469 C 0.0234375 14.226562 0.015625 14.28125 0.015625 14.367188 C 0.015625 14.445312 0.0234375 14.511719 0.03125 14.515625 C 0.0390625 14.519531 0.046875 14.550781 0.0546875 14.59375 C 0.0625 14.683594 0.09375 14.78125 0.113281 14.792969 C 0.121094 14.796875 0.128906 14.816406 0.128906 14.832031 C 0.128906 14.851562 0.136719 14.863281 0.144531 14.863281 C 0.152344 14.863281 0.160156 14.875 0.160156 14.890625 C 0.160156 14.933594 0.253906 15.121094 0.292969 15.15625 C 0.324219 15.1875 1.175781 14.347656 2.207031 13.273438 C 2.308594 13.167969 2.46875 12.996094 2.566406 12.894531 C 2.824219 12.628906 3.347656 12.070312 3.511719 11.886719 C 3.554688 11.839844 3.601562 11.789062 3.617188 11.777344 C 3.628906 11.761719 3.707031 11.675781 3.792969 11.585938 C 3.875 11.492188 3.949219 11.414062 3.953125 11.40625 C 3.957031 11.402344 4.058594 11.292969 4.175781 11.160156 C 4.292969 11.027344 4.398438 10.910156 4.410156 10.902344 C 4.417969 10.890625 4.496094 10.804688 4.578125 10.710938 C 4.847656 10.402344 4.90625 10.34375 4.96875 10.324219 C 5.097656 10.285156 5.257812 10.269531 5.421875 10.273438 L 5.59375 10.28125 L 5.726562 10.371094 C 6.054688 10.582031 6.460938 10.742188 6.554688 10.699219 C 6.585938 10.683594 6.621094 10.671875 6.636719 10.671875 C 6.679688 10.671875 6.929688 10.578125 7.113281 10.496094 C 7.328125 10.394531 7.6875 10.097656 7.8125 9.921875 C 7.839844 9.878906 7.867188 9.84375 7.871094 9.839844 C 7.933594 9.78125 7.992188 9.628906 7.960938 9.605469 C 7.941406 9.59375 7.917969 9.574219 7.902344 9.5625 C 7.890625 9.550781 7.855469 9.527344 7.824219 9.503906 C 7.792969 9.484375 7.757812 9.457031 7.746094 9.445312 C 7.683594 9.382812 7.277344 9.132812 7.082031 9.03125 C 6.722656 8.851562 6.578125 8.808594 6.28125 8.808594 C 6.074219 8.808594 6.046875 8.8125 5.945312 8.851562 C 5.777344 8.917969 5.773438 8.910156 5.921875 8.746094 C 6.316406 8.308594 6.613281 8.089844 7.128906 7.871094 C 7.179688 7.847656 7.394531 7.78125 7.472656 7.761719 C 7.601562 7.730469 7.671875 7.707031 7.710938 7.691406 C 7.824219 7.640625 8.417969 7.222656 8.753906 6.957031 C 9.09375 6.683594 9.203125 6.59375 9.351562 6.472656 C 9.449219 6.394531 9.53125 6.324219 9.535156 6.320312 C 9.539062 6.316406 9.585938 6.277344 9.640625 6.230469 C 9.691406 6.1875 9.757812 6.132812 9.785156 6.109375 C 9.988281 5.929688 10.867188 5.175781 11.027344 5.039062 C 11.445312 4.679688 12.066406 4.195312 12.328125 4.015625 C 12.371094 3.988281 12.410156 3.957031 12.414062 3.949219 C 12.445312 3.914062 12.585938 3.84375 12.621094 3.847656 C 12.929688 3.894531 12.996094 3.875 13.128906 3.691406 C 13.277344 3.488281 13.34375 3.234375 13.34375 2.878906 C 13.34375 2.695312 13.339844 2.65625 13.320312 2.648438 C 13.292969 2.640625 13.140625 2.640625 13.070312 2.648438 "/>
    </g>
</svg>
