<?xml version="1.0" encoding="UTF-8"?>
<svg xmlns="http://www.w3.org/2000/svg" width="13pt" height="13pt" viewBox="0 0 13 13" version="1.1">
<g id="surface1">
<path style=" stroke:none;fill-rule:evenodd;fill:rgb(73.529412%,73.784314%,73.921569%);fill-opacity:1;" d="M 1.101562 0.0078125 C 1.074219 0.0117188 1.058594 0.0195312 1.058594 0.0273438 C 1.0625 0.0351562 1.046875 0.0390625 1.023438 0.0390625 C 0.996094 0.0390625 0.972656 0.0429688 0.972656 0.0507812 C 0.972656 0.0585938 0.957031 0.0664062 0.9375 0.0742188 C 0.917969 0.078125 0.902344 0.0820312 0.898438 0.09375 C 0.898438 0.0976562 0.886719 0.105469 0.871094 0.105469 C 0.855469 0.105469 0.84375 0.109375 0.835938 0.117188 C 0.835938 0.125 0.820312 0.128906 0.804688 0.128906 C 0.789062 0.128906 0.78125 0.132812 0.78125 0.140625 C 0.78125 0.144531 0.761719 0.160156 0.734375 0.167969 C 0.714844 0.179688 0.6875 0.195312 0.679688 0.207031 C 0.667969 0.21875 0.664062 0.222656 0.664062 0.21875 C 0.664062 0.210938 0.644531 0.226562 0.621094 0.246094 C 0.601562 0.269531 0.578125 0.28125 0.566406 0.28125 C 0.5625 0.273438 0.558594 0.277344 0.566406 0.28125 C 0.570312 0.292969 0.566406 0.296875 0.550781 0.296875 C 0.542969 0.296875 0.535156 0.304688 0.535156 0.3125 C 0.535156 0.320312 0.527344 0.324219 0.519531 0.324219 C 0.507812 0.324219 0.441406 0.386719 0.441406 0.398438 C 0.441406 0.40625 0.40625 0.441406 0.398438 0.441406 C 0.382812 0.441406 0.359375 0.46875 0.339844 0.511719 C 0.328125 0.53125 0.3125 0.542969 0.308594 0.535156 C 0.300781 0.535156 0.296875 0.535156 0.304688 0.542969 C 0.308594 0.550781 0.296875 0.570312 0.28125 0.59375 C 0.261719 0.613281 0.246094 0.632812 0.246094 0.636719 C 0.246094 0.644531 0.230469 0.664062 0.214844 0.6875 C 0.199219 0.703125 0.179688 0.742188 0.167969 0.769531 C 0.160156 0.796875 0.144531 0.820312 0.140625 0.820312 C 0.132812 0.820312 0.128906 0.835938 0.128906 0.855469 C 0.128906 0.871094 0.128906 0.882812 0.121094 0.878906 C 0.113281 0.875 0.109375 0.890625 0.109375 0.90625 C 0.105469 0.925781 0.09375 0.957031 0.0820312 0.972656 C 0.0742188 0.992188 0.0664062 1.015625 0.0703125 1.027344 C 0.0742188 1.042969 0.0703125 1.058594 0.0585938 1.058594 C 0.0507812 1.0625 0.0429688 1.09375 0.0429688 1.121094 C 0.0390625 1.152344 0.03125 1.175781 0.0273438 1.179688 C 0.0078125 1.1875 0.0078125 11.550781 0.0273438 11.5625 C 0.0390625 11.570312 0.0742188 11.542969 0.460938 11.242188 C 0.597656 11.136719 0.734375 11.027344 0.769531 11 C 0.828125 10.953125 0.859375 10.894531 0.96875 10.640625 C 0.976562 10.621094 0.996094 10.574219 1.011719 10.542969 C 1.023438 10.507812 1.078125 10.382812 1.128906 10.265625 L 1.222656 10.050781 L 1.152344 9.949219 C 0.992188 9.714844 0.820312 9.203125 0.890625 9.136719 C 0.898438 9.128906 0.921875 9.09375 0.945312 9.0625 C 0.96875 9.03125 0.996094 8.988281 1.007812 8.976562 C 1.023438 8.960938 1.054688 8.921875 1.078125 8.890625 C 1.230469 8.703125 1.484375 8.476562 1.6875 8.359375 C 1.796875 8.296875 1.785156 8.285156 1.960938 8.527344 C 2.011719 8.59375 2.058594 8.664062 2.070312 8.683594 C 2.109375 8.757812 2.136719 8.800781 2.140625 8.796875 C 2.171875 8.765625 1.824219 8.304688 1.773438 8.304688 C 1.640625 8.304688 1.171875 8.726562 0.933594 9.054688 C 0.910156 9.085938 0.890625 9.109375 0.882812 9.105469 C 0.855469 9.085938 0.863281 8.726562 0.898438 8.539062 C 1.085938 7.558594 1.734375 6.824219 2.679688 6.539062 C 3.003906 6.441406 3.34375 6.609375 3.421875 6.910156 C 3.460938 7.0625 3.472656 7.121094 3.492188 7.253906 C 3.5 7.335938 3.511719 7.535156 3.519531 7.695312 C 3.527344 8.019531 3.527344 8.027344 3.410156 8.378906 C 3.386719 8.453125 3.371094 8.523438 3.375 8.523438 C 3.375 8.527344 3.464844 8.261719 3.496094 8.144531 C 3.542969 7.992188 3.527344 8.011719 3.800781 7.777344 C 3.886719 7.703125 3.972656 7.628906 3.988281 7.613281 C 4.007812 7.597656 4.171875 7.460938 4.347656 7.304688 C 4.527344 7.152344 4.691406 7.015625 4.714844 6.996094 C 4.734375 6.976562 4.832031 6.894531 4.925781 6.8125 C 5.023438 6.726562 5.117188 6.648438 5.136719 6.632812 C 5.222656 6.558594 5.40625 6.402344 5.441406 6.375 C 5.460938 6.355469 5.558594 6.273438 5.65625 6.1875 C 5.75 6.105469 5.847656 6.027344 5.863281 6.011719 C 6.019531 5.875 6.542969 5.425781 6.703125 5.289062 C 6.882812 5.136719 6.984375 5.039062 6.984375 5.015625 C 6.984375 5.011719 7 4.976562 7.019531 4.9375 C 7.042969 4.902344 7.082031 4.832031 7.105469 4.785156 L 7.152344 4.703125 L 7.101562 4.585938 C 7.03125 4.421875 6.992188 4.292969 6.972656 4.15625 C 6.964844 4.089844 6.980469 4.070312 7.160156 3.847656 C 7.339844 3.628906 7.660156 3.375 7.722656 3.40625 C 7.773438 3.433594 7.925781 3.691406 7.96875 3.828125 C 7.980469 3.851562 7.988281 3.871094 7.992188 3.867188 C 8.023438 3.835938 7.777344 3.40625 7.71875 3.390625 C 7.695312 3.378906 7.558594 3.460938 7.453125 3.539062 C 7.332031 3.632812 7.183594 3.796875 7.015625 4.007812 C 6.960938 4.082031 6.953125 4.070312 6.953125 3.902344 C 6.953125 3.089844 7.496094 2.402344 8.351562 2.125 C 8.554688 2.058594 8.589844 2.050781 8.65625 2.042969 C 9.050781 2.007812 9.183594 2.566406 9 3.496094 C 8.914062 3.925781 8.285156 4.628906 7.875 4.746094 C 7.828125 4.757812 7.828125 4.757812 7.890625 4.667969 C 7.945312 4.582031 8 4.476562 7.992188 4.457031 C 7.988281 4.449219 7.972656 4.476562 7.957031 4.523438 C 7.9375 4.566406 7.894531 4.640625 7.863281 4.683594 C 7.777344 4.796875 7.800781 4.800781 7.984375 4.710938 C 8.066406 4.667969 8.132812 4.628906 8.132812 4.628906 C 8.136719 4.621094 8.148438 4.613281 8.15625 4.613281 C 8.203125 4.613281 8.535156 4.316406 8.628906 4.1875 C 8.648438 4.160156 8.667969 4.140625 8.671875 4.136719 C 8.679688 4.125 8.816406 3.925781 8.835938 3.894531 C 8.84375 3.878906 8.859375 3.84375 8.878906 3.816406 C 8.925781 3.734375 8.996094 3.59375 8.996094 3.582031 C 8.996094 3.574219 9.027344 3.546875 9.058594 3.523438 C 9.09375 3.496094 9.234375 3.382812 9.371094 3.273438 C 9.511719 3.15625 9.707031 3.003906 9.796875 2.929688 C 9.921875 2.832031 9.972656 2.785156 9.976562 2.757812 C 10.011719 2.597656 10.070312 2.425781 10.105469 2.355469 C 10.121094 2.328125 10.34375 2.210938 10.386719 2.210938 C 10.410156 2.210938 10.4375 2.183594 10.417969 2.183594 C 10.402344 2.183594 10.214844 2.265625 10.199219 2.277344 C 10.136719 2.332031 10.132812 2.285156 10.195312 2.175781 C 10.453125 1.703125 10.902344 1.464844 11.523438 1.464844 L 11.746094 1.464844 L 11.859375 1.515625 C 12.085938 1.628906 12.09375 1.691406 11.929688 2.109375 C 11.769531 2.53125 11.484375 2.859375 11.144531 3.007812 C 10.984375 3.082031 10.730469 3.140625 10.621094 3.128906 L 10.574219 3.125 L 10.640625 3.054688 C 10.789062 2.890625 10.855469 2.664062 10.855469 2.335938 L 10.855469 2.144531 L 10.808594 2.140625 C 10.746094 2.125 10.558594 2.140625 10.488281 2.164062 L 10.433594 2.183594 L 10.484375 2.175781 C 10.511719 2.171875 10.566406 2.164062 10.601562 2.15625 C 10.679688 2.144531 10.792969 2.140625 10.824219 2.152344 C 10.839844 2.15625 10.84375 2.191406 10.84375 2.339844 C 10.84375 2.628906 10.789062 2.835938 10.667969 3 C 10.558594 3.148438 10.503906 3.164062 10.253906 3.125 C 10.226562 3.125 10.113281 3.179688 10.085938 3.207031 C 10.082031 3.214844 10.050781 3.242188 10.015625 3.261719 C 9.804688 3.410156 9.300781 3.800781 8.960938 4.09375 C 8.828125 4.207031 8.117188 4.816406 7.949219 4.964844 C 7.929688 4.984375 7.875 5.027344 7.832031 5.0625 C 7.789062 5.101562 7.75 5.132812 7.746094 5.136719 C 7.742188 5.136719 7.675781 5.195312 7.597656 5.257812 C 7.476562 5.359375 7.390625 5.429688 7.113281 5.652344 C 6.839844 5.867188 6.355469 6.207031 6.265625 6.25 C 6.25 6.253906 6.207031 6.273438 6.175781 6.277344 C 6.085938 6.304688 6.085938 6.304688 6.117188 6.304688 C 6.132812 6.304688 6.21875 6.28125 6.304688 6.253906 C 6.898438 6.070312 7.300781 6.070312 7.769531 6.269531 C 8.382812 6.523438 8.527344 6.855469 8.214844 7.273438 C 8.175781 7.320312 8.132812 7.390625 8.113281 7.421875 C 7.914062 7.796875 7.523438 8.203125 7.15625 8.425781 C 6.851562 8.613281 6.597656 8.707031 6.207031 8.777344 C 6.109375 8.792969 5.679688 8.792969 5.582031 8.777344 C 5.464844 8.753906 5.363281 8.734375 5.339844 8.726562 C 5.316406 8.71875 5.363281 8.683594 5.402344 8.683594 C 5.414062 8.683594 5.445312 8.675781 5.464844 8.664062 C 5.5 8.648438 5.5 8.644531 5.472656 8.652344 C 5.457031 8.65625 5.421875 8.664062 5.394531 8.671875 C 5.371094 8.675781 5.335938 8.6875 5.3125 8.695312 C 5.25 8.726562 4.902344 8.585938 4.652344 8.425781 L 4.546875 8.351562 L 4.40625 8.347656 C 4.273438 8.34375 4.140625 8.355469 4.039062 8.386719 C 3.988281 8.40625 3.9375 8.453125 3.71875 8.703125 C 3.652344 8.777344 3.589844 8.847656 3.582031 8.859375 C 3.574219 8.863281 3.488281 8.960938 3.394531 9.066406 C 3.296875 9.175781 3.214844 9.265625 3.210938 9.265625 C 3.207031 9.273438 3.148438 9.335938 3.082031 9.414062 C 3.011719 9.488281 2.949219 9.554688 2.9375 9.570312 C 2.925781 9.578125 2.886719 9.621094 2.851562 9.65625 C 2.71875 9.808594 2.292969 10.261719 2.085938 10.476562 C 2.007812 10.558594 1.875 10.699219 1.792969 10.785156 C 1.605469 10.976562 1.230469 11.359375 0.691406 11.90625 C 0.460938 12.136719 0.273438 12.332031 0.273438 12.339844 C 0.273438 12.355469 0.304688 12.40625 0.328125 12.429688 C 0.339844 12.441406 0.351562 12.453125 0.351562 12.460938 C 0.351562 12.464844 0.359375 12.476562 0.367188 12.484375 C 0.378906 12.496094 0.390625 12.511719 0.398438 12.519531 C 0.40625 12.53125 0.425781 12.546875 0.441406 12.558594 C 0.457031 12.570312 0.464844 12.585938 0.464844 12.59375 C 0.464844 12.601562 0.480469 12.613281 0.496094 12.617188 C 0.507812 12.621094 0.519531 12.628906 0.519531 12.636719 C 0.519531 12.644531 0.527344 12.648438 0.535156 12.648438 C 0.546875 12.648438 0.5625 12.660156 0.570312 12.675781 C 0.582031 12.6875 0.597656 12.703125 0.605469 12.703125 C 0.617188 12.703125 0.625 12.707031 0.625 12.714844 C 0.625 12.71875 0.632812 12.726562 0.640625 12.726562 C 0.652344 12.726562 0.664062 12.738281 0.667969 12.75 C 0.671875 12.757812 0.679688 12.765625 0.6875 12.761719 C 0.6875 12.753906 0.703125 12.761719 0.714844 12.769531 C 0.746094 12.800781 0.832031 12.84375 0.855469 12.84375 C 0.863281 12.84375 0.871094 12.851562 0.863281 12.855469 C 0.859375 12.863281 0.871094 12.871094 0.890625 12.871094 C 0.90625 12.871094 0.921875 12.875 0.929688 12.882812 C 0.933594 12.890625 0.953125 12.894531 0.96875 12.894531 C 0.984375 12.894531 1 12.902344 1.003906 12.90625 C 1.007812 12.921875 1.136719 12.960938 1.175781 12.960938 C 1.195312 12.960938 1.210938 12.96875 1.214844 12.976562 C 1.226562 12.992188 11.789062 12.992188 11.796875 12.976562 C 11.804688 12.96875 11.824219 12.960938 11.851562 12.960938 C 11.875 12.960938 11.90625 12.957031 11.921875 12.949219 C 11.933594 12.941406 11.960938 12.933594 11.980469 12.933594 C 12 12.929688 12.019531 12.921875 12.023438 12.910156 C 12.027344 12.90625 12.042969 12.894531 12.066406 12.894531 C 12.085938 12.894531 12.101562 12.890625 12.101562 12.882812 C 12.101562 12.875 12.121094 12.871094 12.144531 12.871094 C 12.164062 12.871094 12.179688 12.863281 12.179688 12.855469 C 12.179688 12.851562 12.195312 12.84375 12.207031 12.84375 C 12.222656 12.84375 12.230469 12.839844 12.230469 12.835938 C 12.230469 12.828125 12.253906 12.816406 12.28125 12.804688 C 12.304688 12.792969 12.324219 12.78125 12.324219 12.777344 C 12.324219 12.769531 12.332031 12.765625 12.339844 12.765625 C 12.347656 12.765625 12.371094 12.753906 12.390625 12.738281 C 12.40625 12.71875 12.445312 12.6875 12.472656 12.671875 C 12.5 12.648438 12.539062 12.613281 12.558594 12.59375 C 12.578125 12.574219 12.597656 12.558594 12.601562 12.558594 C 12.617188 12.558594 12.652344 12.515625 12.640625 12.515625 C 12.636719 12.515625 12.636719 12.511719 12.652344 12.503906 C 12.664062 12.5 12.675781 12.484375 12.675781 12.480469 C 12.675781 12.457031 12.707031 12.429688 12.71875 12.4375 C 12.726562 12.445312 12.726562 12.441406 12.71875 12.433594 C 12.71875 12.421875 12.726562 12.402344 12.746094 12.386719 C 12.761719 12.371094 12.773438 12.355469 12.769531 12.347656 C 12.769531 12.34375 12.769531 12.335938 12.773438 12.335938 C 12.78125 12.335938 12.800781 12.3125 12.8125 12.289062 C 12.828125 12.261719 12.84375 12.230469 12.855469 12.210938 C 12.859375 12.199219 12.875 12.167969 12.886719 12.144531 C 12.894531 12.121094 12.90625 12.101562 12.910156 12.101562 C 12.914062 12.101562 12.929688 12.070312 12.941406 12.027344 C 12.953125 11.988281 12.972656 11.941406 12.976562 11.921875 C 13 11.875 13 1.085938 12.976562 1.039062 C 12.972656 1.023438 12.957031 0.980469 12.945312 0.949219 C 12.9375 0.921875 12.921875 0.886719 12.914062 0.875 C 12.90625 0.867188 12.894531 0.847656 12.894531 0.832031 C 12.894531 0.820312 12.890625 0.804688 12.882812 0.804688 C 12.875 0.804688 12.871094 0.792969 12.871094 0.78125 C 12.871094 0.765625 12.863281 0.753906 12.855469 0.753906 C 12.851562 0.753906 12.84375 0.738281 12.84375 0.71875 C 12.84375 0.703125 12.839844 0.6875 12.835938 0.695312 C 12.828125 0.699219 12.816406 0.683594 12.804688 0.660156 C 12.789062 0.621094 12.761719 0.585938 12.71875 0.539062 C 12.707031 0.53125 12.703125 0.515625 12.703125 0.515625 C 12.703125 0.5 12.613281 0.414062 12.597656 0.414062 C 12.589844 0.414062 12.585938 0.410156 12.585938 0.402344 C 12.585938 0.386719 12.46875 0.273438 12.453125 0.273438 C 12.449219 0.273438 12.441406 0.265625 12.4375 0.261719 C 12.433594 0.253906 12.425781 0.246094 12.414062 0.246094 C 12.40625 0.242188 12.382812 0.226562 12.371094 0.214844 C 12.335938 0.179688 12.292969 0.15625 12.265625 0.15625 C 12.253906 0.15625 12.246094 0.148438 12.246094 0.144531 C 12.246094 0.136719 12.234375 0.128906 12.21875 0.128906 C 12.207031 0.128906 12.195312 0.125 12.195312 0.117188 C 12.195312 0.109375 12.179688 0.105469 12.164062 0.105469 C 12.144531 0.105469 12.128906 0.09375 12.125 0.0859375 C 12.121094 0.0742188 12.105469 0.0625 12.09375 0.0625 C 12.078125 0.0625 12.0625 0.0585938 12.0625 0.0585938 C 12.054688 0.0507812 12.039062 0.0429688 12.023438 0.0429688 C 12.007812 0.0429688 11.984375 0.03125 11.976562 0.0234375 C 11.957031 0.0078125 1.242188 -0.0078125 1.101562 0.0078125 M 8.003906 3.933594 C 8.015625 4.003906 8.015625 4.335938 8.003906 4.394531 C 8 4.425781 8 4.425781 8.015625 4.378906 C 8.042969 4.300781 8.042969 4.035156 8.015625 3.945312 C 8 3.886719 7.996094 3.886719 8.003906 3.933594 M 6.023438 6.320312 L 6 6.328125 L 6.023438 6.328125 C 6.039062 6.332031 6.058594 6.324219 6.070312 6.320312 C 6.097656 6.300781 6.066406 6.300781 6.023438 6.320312 M 5.941406 6.34375 C 5.921875 6.355469 5.921875 6.355469 5.941406 6.355469 C 5.949219 6.355469 5.96875 6.351562 5.980469 6.34375 C 6 6.332031 6 6.332031 5.980469 6.332031 C 5.96875 6.332031 5.949219 6.339844 5.941406 6.34375 M 5.839844 6.375 C 5.816406 6.382812 5.796875 6.394531 5.789062 6.402344 C 5.777344 6.414062 5.824219 6.402344 5.882812 6.375 C 5.933594 6.355469 5.898438 6.355469 5.839844 6.375 M 5.71875 6.425781 C 5.710938 6.429688 5.65625 6.457031 5.601562 6.480469 C 5.550781 6.507812 5.5 6.53125 5.492188 6.542969 C 5.480469 6.550781 5.753906 6.425781 5.769531 6.414062 C 5.78125 6.40625 5.738281 6.410156 5.71875 6.425781 M 5.328125 6.640625 C 5.140625 6.769531 4.992188 6.90625 4.8125 7.105469 C 4.691406 7.238281 4.695312 7.246094 4.832031 7.191406 C 4.914062 7.160156 4.933594 7.15625 5.097656 7.15625 C 5.273438 7.15625 5.320312 7.164062 5.476562 7.21875 C 5.519531 7.234375 5.554688 7.238281 5.558594 7.234375 C 5.570312 7.226562 5.304688 7.152344 5.203125 7.136719 C 5.058594 7.117188 4.910156 7.140625 4.800781 7.191406 C 4.617188 7.277344 5.140625 6.765625 5.394531 6.609375 C 5.4375 6.582031 5.472656 6.558594 5.472656 6.558594 C 5.472656 6.542969 5.441406 6.558594 5.328125 6.640625 M 5.578125 7.246094 C 5.578125 7.25 5.664062 7.289062 5.761719 7.339844 C 5.855469 7.390625 5.996094 7.472656 6.070312 7.519531 C 6.144531 7.566406 6.191406 7.59375 6.171875 7.574219 C 6.109375 7.523438 5.871094 7.378906 5.730469 7.308594 C 5.609375 7.25 5.5625 7.230469 5.578125 7.246094 M 6.238281 7.628906 C 6.289062 7.675781 6.304688 7.6875 6.355469 7.722656 C 6.382812 7.742188 6.410156 7.761719 6.421875 7.769531 C 6.433594 7.777344 6.453125 7.796875 6.46875 7.804688 C 6.492188 7.824219 6.449219 7.945312 6.394531 7.996094 C 6.390625 8 6.375 8.023438 6.355469 8.046875 C 6.296875 8.132812 6.117188 8.308594 5.992188 8.394531 C 5.851562 8.492188 5.820312 8.519531 5.898438 8.476562 C 6.085938 8.371094 6.292969 8.171875 6.421875 7.980469 C 6.523438 7.828125 6.523438 7.828125 6.398438 7.738281 C 6.277344 7.648438 6.1875 7.585938 6.238281 7.628906 M 5.761719 8.535156 C 5.726562 8.550781 5.660156 8.582031 5.605469 8.601562 C 5.554688 8.621094 5.511719 8.640625 5.519531 8.640625 C 5.527344 8.652344 5.835938 8.523438 5.835938 8.507812 C 5.835938 8.496094 5.816406 8.507812 5.761719 8.535156 M 3.292969 8.710938 C 3.269531 8.773438 3.253906 8.820312 3.257812 8.824219 C 3.257812 8.828125 3.277344 8.78125 3.300781 8.722656 C 3.328125 8.664062 3.34375 8.617188 3.339844 8.613281 C 3.335938 8.609375 3.316406 8.65625 3.292969 8.710938 M 2.144531 8.820312 C 2.144531 8.824219 2.15625 8.847656 2.175781 8.878906 C 2.214844 8.96875 2.214844 8.972656 2.246094 9.070312 C 2.265625 9.125 2.28125 9.164062 2.285156 9.160156 C 2.296875 9.148438 2.171875 8.8125 2.152344 8.8125 C 2.148438 8.8125 2.144531 8.816406 2.144531 8.820312 M 3.164062 8.992188 C 3.125 9.078125 3.085938 9.148438 3.082031 9.15625 C 3.078125 9.164062 3.082031 9.164062 3.089844 9.160156 C 3.105469 9.148438 3.253906 8.851562 3.246094 8.84375 C 3.242188 8.84375 3.207031 8.910156 3.164062 8.992188 M 2.996094 9.296875 C 2.808594 9.59375 2.589844 9.808594 2.332031 9.957031 C 2.269531 9.996094 2.210938 10.023438 2.207031 10.023438 C 2.199219 10.023438 2.195312 10.027344 2.199219 10.03125 C 2.21875 10.046875 2.4375 9.917969 2.5625 9.820312 C 2.601562 9.785156 2.78125 9.609375 2.820312 9.5625 C 2.898438 9.46875 2.976562 9.359375 2.976562 9.347656 C 2.976562 9.339844 2.980469 9.335938 2.988281 9.335938 C 2.992188 9.335938 3.003906 9.320312 3.011719 9.304688 C 3.019531 9.289062 3.039062 9.253906 3.054688 9.226562 C 3.113281 9.128906 3.070312 9.183594 2.996094 9.296875 M 2.292969 9.222656 C 2.292969 9.246094 2.292969 9.277344 2.300781 9.296875 C 2.3125 9.328125 2.3125 9.328125 2.3125 9.289062 C 2.3125 9.265625 2.308594 9.234375 2.300781 9.21875 C 2.292969 9.183594 2.292969 9.183594 2.292969 9.222656 M 2.316406 9.414062 C 2.316406 9.445312 2.320312 9.457031 2.324219 9.441406 C 2.328125 9.425781 2.328125 9.398438 2.324219 9.382812 C 2.320312 9.367188 2.316406 9.378906 2.316406 9.414062 M 2.292969 9.558594 C 2.289062 9.589844 2.289062 9.609375 2.292969 9.617188 C 2.292969 9.621094 2.304688 9.601562 2.308594 9.574219 C 2.3125 9.550781 2.3125 9.523438 2.3125 9.519531 C 2.308594 9.515625 2.296875 9.535156 2.292969 9.558594 M 2.269531 9.671875 C 2.230469 9.792969 2.167969 9.898438 2.066406 10.003906 C 1.984375 10.09375 1.988281 10.113281 2.09375 10.078125 C 2.132812 10.066406 2.171875 10.054688 2.175781 10.046875 C 2.191406 10.03125 2.1875 10.03125 2.109375 10.0625 C 2.007812 10.097656 2.003906 10.097656 2.070312 10.027344 C 2.171875 9.914062 2.296875 9.695312 2.285156 9.65625 C 2.28125 9.644531 2.277344 9.65625 2.269531 9.671875 "/>
<path style=" stroke:none;fill-rule:evenodd;fill:rgb(97.647059%,98.039216%,98.039216%);fill-opacity:1;" d="M 11.34375 1.464844 C 10.828125 1.511719 10.421875 1.761719 10.195312 2.175781 C 10.121094 2.308594 10.125 2.3125 10.246094 2.253906 C 10.421875 2.167969 10.683594 2.113281 10.808594 2.140625 L 10.855469 2.144531 L 10.855469 2.335938 C 10.855469 2.664062 10.789062 2.890625 10.640625 3.054688 L 10.574219 3.125 L 10.621094 3.128906 C 10.730469 3.140625 10.984375 3.082031 11.144531 3.007812 C 11.484375 2.859375 11.769531 2.53125 11.929688 2.109375 C 12.09375 1.691406 12.085938 1.628906 11.859375 1.515625 L 11.746094 1.464844 L 11.570312 1.460938 C 11.472656 1.460938 11.371094 1.460938 11.34375 1.464844 M 8.613281 2.046875 C 8.605469 2.050781 8.5625 2.0625 8.523438 2.074219 C 7.53125 2.359375 6.953125 3.03125 6.953125 3.902344 C 6.953125 4.070312 6.960938 4.082031 7.015625 4.007812 C 7.25 3.710938 7.414062 3.546875 7.613281 3.429688 C 7.714844 3.375 7.726562 3.375 7.796875 3.46875 C 8.082031 3.875 8.117188 4.324219 7.890625 4.667969 C 7.828125 4.757812 7.828125 4.757812 7.875 4.746094 C 8.285156 4.628906 8.914062 3.925781 9 3.496094 C 9.105469 2.96875 9.097656 2.394531 8.984375 2.210938 C 8.910156 2.089844 8.730469 2.007812 8.613281 2.046875 M 6.914062 6.121094 C 6.714844 6.140625 6.578125 6.171875 6.257812 6.265625 C 6.179688 6.289062 6.09375 6.3125 6.066406 6.324219 C 5.847656 6.375 5.558594 6.503906 5.378906 6.621094 C 5.109375 6.796875 4.625 7.273438 4.800781 7.191406 C 5.160156 7.023438 5.695312 7.203125 6.398438 7.738281 C 6.523438 7.828125 6.523438 7.828125 6.421875 7.980469 C 6.207031 8.300781 5.878906 8.539062 5.460938 8.664062 C 5.308594 8.710938 5.300781 8.726562 5.398438 8.742188 C 5.425781 8.746094 5.480469 8.757812 5.519531 8.761719 C 5.703125 8.800781 6.152344 8.792969 6.363281 8.746094 C 7.082031 8.589844 7.761719 8.078125 8.113281 7.421875 C 8.132812 7.390625 8.175781 7.320312 8.214844 7.273438 C 8.527344 6.855469 8.382812 6.523438 7.769531 6.269531 C 7.546875 6.175781 7.125 6.085938 7.03125 6.113281 C 7.03125 6.113281 6.976562 6.121094 6.914062 6.121094 M 2.742188 6.523438 C 2.214844 6.625 1.605469 7.0625 1.269531 7.585938 C 1 8.011719 0.820312 8.636719 0.867188 9.027344 C 0.875 9.121094 0.886719 9.125 0.933594 9.054688 C 1.171875 8.726562 1.640625 8.304688 1.773438 8.304688 C 1.8125 8.304688 1.882812 8.386719 2.007812 8.566406 C 2.402344 9.148438 2.425781 9.644531 2.070312 10.027344 C 2.003906 10.097656 2.007812 10.097656 2.121094 10.058594 C 2.734375 9.835938 3.203125 9.167969 3.492188 8.113281 C 3.546875 7.914062 3.523438 7.320312 3.449219 7.027344 C 3.441406 6.984375 3.425781 6.929688 3.421875 6.910156 C 3.347656 6.625 3.066406 6.464844 2.742188 6.523438 "/>
<path style=" stroke:none;fill-rule:evenodd;fill:rgb(48.823529%,49.215686%,49.215686%);fill-opacity:1;" d="M 10.621094 2.152344 C 10.554688 2.160156 10.445312 2.1875 10.417969 2.195312 C 10.402344 2.203125 10.367188 2.214844 10.339844 2.226562 C 10.222656 2.273438 10.117188 2.328125 10.105469 2.355469 C 10.0625 2.441406 10.011719 2.609375 9.976562 2.757812 C 9.972656 2.785156 9.921875 2.832031 9.796875 2.929688 C 9.707031 3.003906 9.511719 3.15625 9.371094 3.273438 C 9.234375 3.382812 9.09375 3.496094 9.058594 3.523438 C 9.027344 3.546875 8.996094 3.574219 8.996094 3.582031 C 8.996094 3.59375 8.925781 3.734375 8.878906 3.816406 C 8.859375 3.84375 8.84375 3.878906 8.835938 3.894531 C 8.816406 3.925781 8.679688 4.125 8.671875 4.136719 C 8.667969 4.140625 8.648438 4.160156 8.628906 4.1875 C 8.535156 4.316406 8.203125 4.613281 8.15625 4.613281 C 8.148438 4.613281 8.136719 4.621094 8.132812 4.628906 C 8.132812 4.628906 8.066406 4.667969 7.984375 4.710938 C 7.800781 4.800781 7.777344 4.796875 7.863281 4.683594 C 8 4.503906 8.066406 4.175781 8.007812 3.960938 C 7.949219 3.738281 7.796875 3.445312 7.722656 3.40625 C 7.609375 3.34375 6.953125 4.003906 6.972656 4.15625 C 6.992188 4.292969 7.03125 4.421875 7.101562 4.585938 L 7.152344 4.703125 L 7.105469 4.785156 C 7.082031 4.832031 7.042969 4.902344 7.019531 4.9375 C 7 4.976562 6.984375 5.011719 6.984375 5.015625 C 6.984375 5.039062 6.882812 5.136719 6.703125 5.289062 C 6.542969 5.425781 6.019531 5.875 5.863281 6.011719 C 5.847656 6.027344 5.75 6.105469 5.65625 6.1875 C 5.558594 6.273438 5.460938 6.355469 5.441406 6.375 C 5.40625 6.402344 5.222656 6.558594 5.136719 6.632812 C 5.117188 6.648438 5.023438 6.726562 4.925781 6.8125 C 4.832031 6.894531 4.734375 6.976562 4.714844 6.996094 C 4.691406 7.015625 4.527344 7.152344 4.347656 7.304688 C 4.171875 7.460938 4.007812 7.597656 3.988281 7.613281 C 3.972656 7.628906 3.886719 7.703125 3.800781 7.777344 C 3.527344 8.011719 3.539062 7.992188 3.496094 8.15625 C 3.476562 8.226562 3.371094 8.554688 3.355469 8.585938 C 3.347656 8.601562 3.324219 8.667969 3.292969 8.738281 C 3.226562 8.902344 3.15625 9.058594 3.070312 9.195312 C 3.035156 9.257812 3.003906 9.316406 3.003906 9.320312 C 3.003906 9.328125 2.996094 9.335938 2.988281 9.335938 C 2.984375 9.335938 2.976562 9.339844 2.976562 9.347656 C 2.976562 9.355469 2.949219 9.398438 2.917969 9.441406 C 2.683594 9.746094 2.46875 9.921875 2.183594 10.046875 C 2.003906 10.125 1.964844 10.113281 2.066406 10.003906 C 2.261719 9.800781 2.34375 9.539062 2.300781 9.277344 C 2.289062 9.203125 2.226562 9 2.210938 8.957031 C 2.125 8.769531 2.058594 8.660156 1.960938 8.523438 C 1.785156 8.285156 1.796875 8.296875 1.6875 8.359375 C 1.484375 8.476562 1.230469 8.703125 1.078125 8.890625 C 1.054688 8.921875 1.023438 8.960938 1.007812 8.976562 C 0.996094 8.988281 0.96875 9.03125 0.945312 9.0625 C 0.921875 9.09375 0.898438 9.128906 0.890625 9.136719 C 0.820312 9.203125 0.992188 9.714844 1.152344 9.949219 L 1.222656 10.050781 L 1.128906 10.265625 C 1.078125 10.382812 1.023438 10.507812 1.011719 10.542969 C 0.996094 10.574219 0.976562 10.621094 0.96875 10.640625 C 0.859375 10.894531 0.828125 10.953125 0.769531 11 C 0.734375 11.027344 0.597656 11.136719 0.460938 11.242188 C 0.0742188 11.542969 0.0390625 11.570312 0.0273438 11.5625 C 0.0195312 11.558594 0.0117188 11.601562 0.0117188 11.671875 C 0.0117188 11.738281 0.0195312 11.789062 0.0273438 11.792969 C 0.03125 11.796875 0.0390625 11.824219 0.0429688 11.859375 C 0.0507812 11.929688 0.078125 12.007812 0.09375 12.019531 C 0.0976562 12.023438 0.105469 12.039062 0.105469 12.050781 C 0.105469 12.066406 0.109375 12.078125 0.117188 12.078125 C 0.125 12.078125 0.128906 12.085938 0.128906 12.097656 C 0.128906 12.132812 0.207031 12.285156 0.238281 12.3125 C 0.261719 12.339844 0.957031 11.65625 1.792969 10.785156 C 1.875 10.699219 2.007812 10.558594 2.085938 10.476562 C 2.292969 10.261719 2.71875 9.808594 2.851562 9.65625 C 2.886719 9.621094 2.925781 9.578125 2.9375 9.570312 C 2.949219 9.554688 3.011719 9.488281 3.082031 9.414062 C 3.148438 9.335938 3.207031 9.273438 3.210938 9.265625 C 3.214844 9.265625 3.296875 9.175781 3.394531 9.066406 C 3.488281 8.960938 3.574219 8.863281 3.582031 8.859375 C 3.589844 8.847656 3.652344 8.777344 3.71875 8.703125 C 3.9375 8.453125 3.988281 8.40625 4.039062 8.386719 C 4.140625 8.355469 4.273438 8.34375 4.40625 8.347656 L 4.546875 8.351562 L 4.652344 8.425781 C 4.917969 8.597656 5.25 8.726562 5.324219 8.691406 C 5.351562 8.679688 5.378906 8.671875 5.390625 8.671875 C 5.425781 8.671875 5.628906 8.59375 5.78125 8.527344 C 5.953125 8.445312 6.246094 8.203125 6.347656 8.0625 C 6.371094 8.027344 6.390625 8 6.394531 7.996094 C 6.445312 7.945312 6.492188 7.824219 6.46875 7.804688 C 6.453125 7.796875 6.433594 7.777344 6.421875 7.769531 C 6.410156 7.761719 6.382812 7.742188 6.355469 7.722656 C 6.332031 7.707031 6.304688 7.683594 6.292969 7.675781 C 6.242188 7.625 5.914062 7.421875 5.753906 7.335938 C 5.460938 7.191406 5.34375 7.15625 5.105469 7.15625 C 4.933594 7.15625 4.914062 7.160156 4.832031 7.191406 C 4.695312 7.246094 4.691406 7.238281 4.8125 7.105469 C 5.132812 6.75 5.375 6.574219 5.792969 6.394531 C 5.832031 6.375 6.007812 6.324219 6.070312 6.304688 C 6.175781 6.28125 6.234375 6.261719 6.265625 6.25 C 6.355469 6.207031 6.839844 5.867188 7.113281 5.652344 C 7.390625 5.429688 7.476562 5.359375 7.597656 5.257812 C 7.675781 5.195312 7.742188 5.136719 7.746094 5.136719 C 7.75 5.132812 7.789062 5.101562 7.832031 5.0625 C 7.875 5.027344 7.929688 4.984375 7.949219 4.964844 C 8.117188 4.816406 8.828125 4.207031 8.960938 4.09375 C 9.300781 3.800781 9.804688 3.410156 10.015625 3.261719 C 10.050781 3.242188 10.082031 3.214844 10.085938 3.207031 C 10.113281 3.179688 10.226562 3.125 10.253906 3.125 C 10.503906 3.164062 10.558594 3.148438 10.667969 3 C 10.789062 2.835938 10.84375 2.628906 10.84375 2.339844 C 10.84375 2.191406 10.839844 2.15625 10.824219 2.152344 C 10.800781 2.144531 10.675781 2.144531 10.621094 2.152344 "/>
</g>
</svg>
